# xmcd
#
# Track frame offsets: 
#        150
#        6487
#        12518
#        16717
#        24435
#        29257
#        33464
#        37146
#        46229
#        65946
#        75752
#        79953
#        84161
#        87843
#        107561
#
# Disc length: 1562 seconds
#
# Revision: 0
# Processed by: cddbd v1.5.2PL0 Copyright (c) Steve Scherf et al.
# Submitted via: ExactAudioCopy v1.0b3
#
DISCID=a906180f
DTITLE=KUMON - Baby Kumon うたぶっく1
DYEAR=2015
DGENRE=JPop
TTITLE0=チューリップ
TTITLE1=とんぼのめがね
TTITLE2=はと
TTITLE3=いぬのおまわりさん
TTITLE4=おおきなたいこ
TTITLE5=だるまさん
TTITLE6=いっぽんばしこちょこちょ
TTITLE7=Happy Birthday to You
TTITLE8=おおきなふるどけい
TTITLE9=ゆりかごのうた
TTITLE10=はと（カラオケ）
TTITLE11=だるまさん（カラオケ）
TTITLE12=いっぽんばしこちょこちょ（カラオケ）
TTITLE13=おおきなふるどけい（カラオケ）
TTITLE14=ゆりかごのうた（カラオケ）
EXTD=
EXTT0=
EXTT1=
EXTT2=
EXTT3=
EXTT4=
EXTT5=
EXTT6=
EXTT7=
EXTT8=
EXTT9=
EXTT10=
EXTT11=
EXTT12=
EXTT13=
EXTT14=
PLAYORDER=
